<svg width="108" height="31" viewBox="0 0 108 31" fill="none" xmlns="http://www.w3.org/2000/svg">
<path d="M107.418 11.8717L107.418 11.8685C107.43 10.0872 107.446 8.30309 107.463 6.51924C107.476 5.0888 107.489 3.65855 107.5 2.23008L107.5 2.22863C107.502 2.05502 107.416 1.88861 107.295 1.79485C107.191 1.7141 107.067 1.68637 106.912 1.76283C106.382 2.03078 105.854 2.29986 105.328 2.57005L105.229 2.62112L105.118 2.62507C104.963 2.63052 104.818 2.69634 104.714 2.80721L104.709 2.81177L104.624 2.89985L104.567 2.95938L104.493 2.99717C102.655 3.93944 100.846 4.90079 99.0629 5.91186C99.0206 5.93728 98.988 5.97505 98.9694 6.01934C98.9504 6.06435 98.9467 6.11408 98.9585 6.16126C98.9704 6.20849 98.9975 6.25114 99.0362 6.28258C99.075 6.31407 99.1235 6.33253 99.1743 6.33469L99.4131 6.34487L99.5551 6.537C99.5813 6.57243 99.615 6.60208 99.6542 6.62374L99.6574 6.62552C100.693 7.20854 101.687 7.86179 102.632 8.58064L103.026 8.88046L102.73 9.27752C95.6557 18.7642 83.4862 23.7176 71.4864 21.1755L71.486 21.1754C69.7429 20.8047 68.0396 20.2688 66.3993 19.575L65.7953 19.3195L66.2016 18.8047C66.9768 17.8224 67.6592 16.7712 68.2401 15.6643C69.5349 13.1712 70.3219 9.31733 69.7606 6.17214C69.4812 4.60622 68.8758 3.26015 67.8807 2.33287C66.8965 1.4157 65.4789 0.859529 63.467 0.961409L63.467 0.961412C61.4795 1.06189 59.9758 1.73819 58.8899 2.74786C57.7995 3.76173 57.1014 5.13915 56.7798 6.68298C56.1335 9.78555 57.0268 13.4718 59.167 15.9438C60.4068 17.3587 61.871 18.5629 63.5018 19.5086L64.0632 19.8342L63.6051 20.294C56.8392 27.0854 45.344 30.0843 36.5579 28.7077L36.5569 28.7076C33.2698 28.186 30.188 26.782 27.6441 24.6467L26.8872 24.0113L27.8475 23.7779C30.908 23.0341 33.9448 21.9093 36.1709 20.1684C38.3765 18.4437 39.779 16.1245 39.6391 12.9268C39.5081 9.94321 37.5206 7.73104 34.9174 6.65973C32.3062 5.58511 29.1605 5.69795 26.8264 7.29124L26.8261 7.29145C21.5975 10.8548 21.4713 17.9837 24.8378 22.9147L25.2792 23.5613L24.5069 23.6899L23.1438 23.9168L23.1421 23.9171C19.1381 24.5699 14.5133 24.7594 10.4189 23.6814C6.30889 22.5993 2.70577 20.229 0.850735 15.7628L0.850631 15.7625C0.818635 15.6854 0.787692 15.6762 0.779638 15.6739L0.778921 15.6736C0.75778 15.6671 0.709566 15.6642 0.64623 15.6939C0.583633 15.7232 0.538231 15.7701 0.516656 15.8148C0.499755 15.8497 0.488979 15.8979 0.518425 15.9747C2.07754 20.0347 5.19933 22.51 8.94773 23.8598C12.7074 25.2137 17.0803 25.4261 21.0597 24.9496L21.0597 24.9496L21.0648 24.949C22.4175 24.8011 23.9717 24.5861 25.5921 24.2773L25.8636 24.2256L26.0518 24.4279L26.174 24.5593C32.2956 30.8471 42.1584 30.8168 50.2844 28.5853L50.2846 28.5853C55.5998 27.1278 60.8823 24.4979 64.7119 20.5516L64.9601 20.2958L65.2829 20.447C71.7038 23.4558 80.0061 23.5776 86.3927 21.8637C93.3003 19.9723 99.3693 15.8321 103.629 10.1064L103.973 9.6434L104.382 10.0502L104.384 10.0522L104.386 10.0542L104.388 10.0562L104.39 10.0582L104.392 10.0601L104.394 10.0621L104.396 10.0641L104.398 10.0661L104.4 10.0681L104.402 10.0701L104.404 10.0721L104.406 10.074L104.408 10.076L104.41 10.078L104.412 10.08L104.414 10.082L104.416 10.084L104.418 10.086L104.42 10.0879L104.422 10.0899L104.424 10.0919L104.426 10.0939L104.428 10.0959L104.43 10.0979L104.432 10.0998L104.434 10.1018L104.436 10.1038L104.438 10.1058L104.44 10.1078L104.442 10.1098L104.444 10.1118L104.446 10.1137L104.448 10.1157L104.45 10.1177L104.452 10.1197L104.454 10.1217L104.456 10.1237L104.458 10.1257L104.46 10.1276L104.462 10.1296L104.464 10.1316L104.466 10.1336L104.468 10.1356L104.47 10.1376L104.472 10.1395L104.474 10.1415L104.476 10.1435L104.478 10.1455L104.48 10.1475L104.482 10.1495L104.484 10.1515L104.486 10.1534L104.488 10.1554L104.49 10.1574L104.492 10.1594L104.494 10.1614L104.496 10.1634L104.498 10.1653L104.5 10.1673L104.502 10.1693L104.504 10.1713L104.506 10.1733L104.508 10.1753L104.51 10.1773L104.512 10.1792L104.514 10.1812L104.516 10.1832L104.518 10.1852L104.52 10.1872L104.522 10.1892L104.524 10.1912L104.526 10.1931L104.528 10.1951L104.53 10.1971L104.532 10.1991L104.534 10.2011L104.536 10.2031L104.538 10.205L104.54 10.207L104.542 10.209L104.544 10.211L104.546 10.213L104.548 10.215L104.55 10.217L104.552 10.2189L104.554 10.2209L104.556 10.2229L104.558 10.2249L104.56 10.2269L104.562 10.2289L104.564 10.2309L104.566 10.2328L104.568 10.2348L104.57 10.2368L104.572 10.2388L104.574 10.2408L104.576 10.2428L104.578 10.2447L104.58 10.2467L104.582 10.2487L104.584 10.2507L104.586 10.2527L104.588 10.2547L104.59 10.2567L104.592 10.2586L104.594 10.2606L104.596 10.2626L104.598 10.2646L104.6 10.2666L104.602 10.2686L104.604 10.2706L104.606 10.2725L104.608 10.2745L104.61 10.2765L104.612 10.2785L104.614 10.2805L104.616 10.2825L104.618 10.2844L104.62 10.2864L104.622 10.2884L104.624 10.2904L104.626 10.2924L104.628 10.2944L104.63 10.2964L104.632 10.2983L104.634 10.3003L104.636 10.3023L104.638 10.3043L104.64 10.3063L104.642 10.3083L104.644 10.3103L104.646 10.3122L104.648 10.3142L104.65 10.3162L104.652 10.3182L104.654 10.3202L104.656 10.3222L104.658 10.3241L104.66 10.3261L104.662 10.3281L104.664 10.3301L104.666 10.3321L104.668 10.3341L104.67 10.3361L104.672 10.338L104.674 10.34L104.676 10.342L104.678 10.344L104.68 10.346L104.682 10.348L104.684 10.35L104.686 10.3519L104.688 10.3539L104.69 10.3559L104.692 10.3579L104.694 10.3599L104.696 10.3619L104.698 10.3638L104.7 10.3658L104.702 10.3678L104.704 10.3698L104.706 10.3718L104.708 10.3738L104.71 10.3758L104.712 10.3777L104.714 10.3797L104.716 10.3817L104.718 10.3837L104.72 10.3857L104.722 10.3877L104.724 10.3897L104.726 10.3916L104.728 10.3936L104.73 10.3956L104.732 10.3976L104.734 10.3996L104.736 10.4016L104.738 10.4035L104.74 10.4055L104.742 10.4075L104.744 10.4095L104.746 10.4115L104.748 10.4135L104.75 10.4155L104.752 10.4174L104.754 10.4194L104.756 10.4214L104.758 10.4234L104.76 10.4254L104.762 10.4274L104.764 10.4293L104.766 10.4313L104.768 10.4333L104.77 10.4353L104.772 10.4373L104.774 10.4393L104.776 10.4413L104.778 10.4432L104.78 10.4452L104.782 10.4472L104.784 10.4492L104.786 10.4512L104.788 10.4532L104.79 10.4552L104.792 10.4571L104.794 10.4591L104.796 10.4611L104.798 10.4631L104.8 10.4651L104.802 10.4671L104.804 10.469L104.806 10.471L104.808 10.473L104.81 10.475L104.812 10.477L104.814 10.479L104.816 10.481L104.818 10.4829L104.82 10.4849L104.822 10.4869L104.824 10.4889L104.826 10.4909L104.828 10.4929L104.83 10.4949L104.832 10.4968L104.834 10.4988L104.836 10.5008L104.838 10.5028L104.84 10.5048L104.842 10.5068L104.844 10.5087L104.846 10.5107L104.847 10.5127L104.849 10.5147L104.851 10.5167L104.853 10.5187L104.855 10.5207L104.857 10.5226L104.859 10.5246L104.861 10.5266L104.863 10.5286L104.865 10.5306L104.867 10.5326L104.869 10.5346L104.871 10.5365L104.873 10.5385L104.875 10.5405L104.877 10.5425L104.879 10.5445L104.881 10.5465L104.883 10.5484L104.885 10.5504L104.887 10.5524L104.889 10.5544L104.891 10.5564L104.893 10.5584L104.895 10.5604L104.897 10.5623L104.899 10.5643L104.901 10.5663L104.903 10.5683L104.905 10.5703L104.907 10.5723L104.909 10.5743L104.911 10.5762L104.913 10.5782L104.915 10.5802L104.917 10.5822L104.919 10.5842L104.921 10.5862L104.923 10.5881L104.925 10.5901L104.927 10.5921L104.929 10.5941L104.931 10.5961L104.933 10.5981L104.935 10.6001L104.937 10.602L104.939 10.604L104.941 10.606L104.943 10.608L104.945 10.61L104.947 10.612L104.949 10.614L104.951 10.6159L104.953 10.6179L104.955 10.6199L104.957 10.6219L104.959 10.6239L104.961 10.6259L104.963 10.6278L104.965 10.6298L104.967 10.6318L104.969 10.6338L104.971 10.6358L104.973 10.6378L104.975 10.6398L104.977 10.6417L104.979 10.6437L104.981 10.6457L104.983 10.6477L104.985 10.6497L104.987 10.6517L104.989 10.6537L104.991 10.6556L104.993 10.6576L104.995 10.6596L104.997 10.6616L104.999 10.6636L105.001 10.6656L105.003 10.6675L105.005 10.6695L105.007 10.6715L105.009 10.6735L105.011 10.6755L105.013 10.6775L105.015 10.6795L105.017 10.6814L105.019 10.6834L105.021 10.6854L105.023 10.6874L105.025 10.6894L105.027 10.6914L105.029 10.6933L105.031 10.6953L105.033 10.6973L105.035 10.6993L105.037 10.7013L105.039 10.7033L105.041 10.7053L105.043 10.7072L105.045 10.7092L105.047 10.7112L105.049 10.7132L105.051 10.7152L105.053 10.7172L105.055 10.7192L105.057 10.7211L105.059 10.7231L105.061 10.7251L105.063 10.7271L105.065 10.7291L105.067 10.7311L105.069 10.733L105.071 10.735L105.073 10.737L105.075 10.739L105.077 10.741L105.079 10.743L105.081 10.745L105.083 10.7469L105.085 10.7489L105.087 10.7509L105.089 10.7529L105.091 10.7549L105.093 10.7569L105.095 10.7589L105.097 10.7608L105.099 10.7628L105.101 10.7648L105.103 10.7668L105.105 10.7688L105.107 10.7708L105.109 10.7727L105.111 10.7747L105.113 10.7767L105.115 10.7787L105.117 10.7807L105.119 10.7827L105.121 10.7847L105.123 10.7866L105.125 10.7886L105.127 10.7906L105.129 10.7926L105.131 10.7946L105.133 10.7966L105.135 10.7986L105.137 10.8005L105.139 10.8025L105.141 10.8045L105.143 10.8065L105.145 10.8085L105.147 10.8105L105.149 10.8124L105.151 10.8144L105.153 10.8164L105.155 10.8184L105.157 10.8204L105.159 10.8224L105.161 10.8244L105.163 10.8263L105.165 10.8283L105.167 10.8303L105.169 10.8323L105.171 10.8343L105.173 10.8363L105.175 10.8383L105.177 10.8402L105.179 10.8422L105.181 10.8442L105.183 10.8462L105.185 10.8482L105.187 10.8502L105.189 10.8521L105.191 10.8541L105.193 10.8561L105.195 10.8581L105.197 10.8601L105.199 10.8621L105.201 10.8641L105.203 10.866L105.205 10.868L105.207 10.87L105.209 10.872L105.211 10.874L105.213 10.876L105.215 10.878L105.217 10.8799L105.219 10.8819L105.221 10.8839L105.223 10.8859L105.225 10.8879L105.227 10.8899L105.229 10.8918L105.231 10.8938L105.233 10.8958L105.235 10.8978L105.237 10.8998L105.239 10.9018L105.241 10.9038L105.243 10.9057L105.245 10.9077L105.247 10.9097L105.249 10.9117L105.251 10.9137L105.253 10.9157L105.255 10.9177L105.257 10.9196L105.259 10.9216L105.261 10.9236L105.263 10.9256L105.265 10.9276L105.267 10.9296L105.269 10.9315L105.271 10.9335L105.273 10.9355L105.275 10.9375L105.277 10.9395L105.279 10.9415L105.281 10.9435L105.283 10.9454L105.285 10.9474L105.287 10.9494L105.289 10.9514L105.291 10.9534L105.293 10.9554L105.295 10.9573L105.297 10.9593L105.299 10.9613L105.301 10.9633L105.303 10.9653L105.305 10.9673L105.307 10.9693L105.309 10.9712L105.311 10.9732L105.313 10.9752L105.315 10.9772L105.317 10.9792L105.319 10.9812L105.321 10.9832L105.323 10.9851L105.325 10.9871L105.327 10.9891L105.329 10.9911L105.331 10.9931L105.333 10.9951L105.335 10.997L105.337 10.999L105.339 11.001L105.341 11.003L105.343 11.005L105.345 11.007L105.347 11.009L105.349 11.0109L105.351 11.0129L105.353 11.0149L105.355 11.0169L105.357 11.0189L105.359 11.0209L105.361 11.0229L105.363 11.0248L105.365 11.0268L105.367 11.0288L105.369 11.0308L105.371 11.0328L105.373 11.0348L105.375 11.0367L105.377 11.0387L105.379 11.0407L105.381 11.0427L105.383 11.0447L105.385 11.0467L105.387 11.0487L105.389 11.0506L105.391 11.0526L105.393 11.0546L105.395 11.0566L105.397 11.0586L105.399 11.0606L105.401 11.0626L105.403 11.0645L105.405 11.0665L105.417 11.0785L105.428 11.0913C105.472 11.1412 105.525 11.1821 105.586 11.2112C105.646 11.2403 105.712 11.2571 105.779 11.2605L106.014 11.2723L106.155 11.4608C106.184 11.5001 106.214 11.5399 106.244 11.5804C106.369 11.7464 106.501 11.9224 106.626 12.1056C106.697 12.2049 106.863 12.2742 107.094 12.203C107.33 12.1307 107.418 11.9804 107.418 11.8717ZM23.4492 15.1942L23.4493 15.1925C23.712 11.9006 25.7498 9.01183 28.4014 7.61878C31.0821 6.21045 34.3988 6.33275 37.094 9.08201C38.8693 10.8874 39.136 13.1197 38.5258 15.1699C37.9217 17.1998 36.4585 19.072 34.7267 20.28C32.3428 21.9431 29.4548 22.7654 26.6344 23.3213L26.3557 23.3763L26.1658 23.165C25.1968 22.0868 24.4566 20.8251 23.9897 19.4554C23.5229 18.0857 23.339 16.6363 23.4492 15.1942ZM64.8477 2.10391L64.8478 2.10394C67.2548 2.53032 68.4303 4.3112 68.871 6.30363C69.3076 8.27744 69.0535 10.5398 68.5663 12.1926L68.0867 12.0512L68.5656 12.1949C67.8671 14.5238 66.7166 16.6941 65.1791 18.5832L64.92 18.9016L64.5572 18.7094C60.3138 16.4611 56.662 12.7614 57.6022 7.43241C58.1748 4.12941 61.3383 1.48347 64.8477 2.10391Z" fill="#FEC85B" stroke="black"/>
</svg>
