<svg width="44" height="38" viewBox="0 0 44 38" fill="none" xmlns="http://www.w3.org/2000/svg">
<g filter="url(#filter0_d_22_898)">
<path d="M22 22.7684C24.0812 22.7684 25.7684 21.0812 25.7684 19C25.7684 16.9188 24.0812 15.2317 22 15.2317C19.9188 15.2317 18.2317 16.9188 18.2317 19C18.2317 21.0812 19.9188 22.7684 22 22.7684Z" fill="#1EB2BE"/>
<path d="M34.6667 29.6875C34.4134 29.6875 34.1759 29.6083 33.9542 29.45C33.4317 29.0541 33.3209 28.3099 33.7167 27.7874C35.6325 25.2383 36.6459 22.1983 36.6459 19C36.6459 15.8016 35.6325 12.7616 33.7167 10.2125C33.3209 9.68998 33.4317 8.94578 33.9542 8.54995C34.4767 8.15411 35.2209 8.26494 35.6167 8.78744C37.8492 11.7483 39.0209 15.2791 39.0209 19C39.0209 22.7208 37.8492 26.2516 35.6167 29.2125C35.3792 29.5291 35.0309 29.6875 34.6667 29.6875Z" fill="#1EB2BE"/>
<path d="M9.33342 29.6875C8.96925 29.6875 8.62091 29.5291 8.38341 29.2125C6.15091 26.2516 4.97925 22.7208 4.97925 19C4.97925 15.2791 6.15091 11.7483 8.38341 8.78744C8.77924 8.26494 9.52343 8.15411 10.0459 8.54995C10.5684 8.94578 10.6793 9.68998 10.2834 10.2125C8.36759 12.7616 7.35425 15.8016 7.35425 19C7.35425 22.1983 8.36759 25.2383 10.2834 27.7874C10.6793 28.3099 10.5684 29.0541 10.0459 29.45C9.8401 29.6083 9.58675 29.6875 9.33342 29.6875Z" fill="#1EB2BE"/>
<path d="M29.6 25.8875C29.3467 25.8875 29.1092 25.8084 28.8875 25.65C28.365 25.2542 28.2542 24.51 28.65 23.9875C29.7425 22.5467 30.3125 20.8208 30.3125 19C30.3125 17.1792 29.7425 15.4533 28.65 14.0125C28.2542 13.49 28.365 12.7458 28.8875 12.35C29.41 11.9541 30.1542 12.065 30.55 12.5875C31.9433 14.4559 32.6875 16.6725 32.6875 19C32.6875 21.3275 31.9433 23.56 30.55 25.4125C30.3125 25.7291 29.9642 25.8875 29.6 25.8875Z" fill="#1EB2BE"/>
<path d="M14.4 25.8875C14.0359 25.8875 13.6875 25.7291 13.45 25.4125C12.0567 23.5441 11.3125 21.3275 11.3125 19C11.3125 16.6725 12.0567 14.44 13.45 12.5875C13.8458 12.065 14.59 11.9541 15.1125 12.35C15.635 12.7458 15.7458 13.49 15.35 14.0125C14.2575 15.4533 13.6875 17.1792 13.6875 19C13.6875 20.8208 14.2575 22.5467 15.35 23.9875C15.7458 24.51 15.635 25.2542 15.1125 25.65C14.9067 25.8084 14.6534 25.8875 14.4 25.8875Z" fill="#1EB2BE"/>
</g>
<defs>
<filter id="filter0_d_22_898" x="-1" y="0" width="46" height="46" filterUnits="userSpaceOnUse" color-interpolation-filters="sRGB">
<feFlood flood-opacity="0" result="BackgroundImageFix"/>
<feColorMatrix in="SourceAlpha" type="matrix" values="0 0 0 0 0 0 0 0 0 0 0 0 0 0 0 0 0 0 127 0" result="hardAlpha"/>
<feOffset dy="4"/>
<feGaussianBlur stdDeviation="2"/>
<feComposite in2="hardAlpha" operator="out"/>
<feColorMatrix type="matrix" values="0 0 0 0 0 0 0 0 0 0 0 0 0 0 0 0 0 0 0.25 0"/>
<feBlend mode="normal" in2="BackgroundImageFix" result="effect1_dropShadow_22_898"/>
<feBlend mode="normal" in="SourceGraphic" in2="effect1_dropShadow_22_898" result="shape"/>
</filter>
</defs>
</svg>
