<svg width="38" height="38" viewBox="0 0 38 38" fill="none" xmlns="http://www.w3.org/2000/svg">
<path d="M29.355 6.52337L20.6467 3.2617C19.7442 2.9292 18.2717 2.9292 17.3692 3.2617L8.66085 6.52337C6.98252 7.1567 5.62085 9.12004 5.62085 10.9092V23.7342C5.62085 25.0167 6.46002 26.7109 7.48918 27.4709L16.1975 33.9784C17.7333 35.1342 20.2508 35.1342 21.7867 33.9784L30.495 27.4709C31.5242 26.695 32.3634 25.0167 32.3634 23.7342V10.9092C32.3792 9.12004 31.0175 7.1567 29.355 6.52337ZM24.51 15.39L17.7017 22.1984C17.4642 22.4359 17.1633 22.5467 16.8625 22.5467C16.5617 22.5467 16.2608 22.4359 16.0233 22.1984L13.49 19.6334C13.0309 19.1742 13.0309 18.4142 13.49 17.955C13.9492 17.4959 14.7092 17.4959 15.1683 17.955L16.8783 19.665L22.8475 13.6959C23.3067 13.2367 24.0667 13.2367 24.5259 13.6959C24.985 14.155 24.985 14.9309 24.51 15.39Z" fill="#1CBD00"/>
</svg>
